{
  "source": "C:\\Users\\Peter\\Desktop\\stuff\\MIUN\\quantitative_research\\video_compression\\videos\\BVI-HD\\BVI-HD_CDVL_videos\\ORIG\\TreeGrassFamily_1920x1080_30fps.mp4",
  "output": "C:\\Users\\Peter\\Desktop\\stuff\\MIUN\\quantitative_research\\video_compression\\compressed_videos\\BVI-HD\\hevc\\1\\TreeGrassFamily_1920x1080_30fps_hevc.mp4",
  "codec": "hevc",
  "ok": "Input #0, mov,mp4,m4a,3gp,3g2,mj2, from 'C:\\Users\\Peter\\Desktop\\stuff\\MIUN\\quantitative_research\\video_compression\\videos\\BVI-HD\\BVI-HD_CDVL_videos\\ORIG\\TreeGrassFamily_1920x1080_30fps.mp4':\n  Metadata:\n    major_brand     : isom\n    minor_version   : 512\n    compatible_brands: isomiso2avc1mp41\n    encoder         : Lavf54.28.101\n  Duration: 00:00:05.00, start: 0.000000, bitrate: 331787 kb/s\n  Stream #0:0[0x1](und): Video: h264 (High 4:4:4 Predictive) (avc1 / 0x31637661), yuv420p(progressive), 1920x1080, 331784 kb/s, 30 fps, 30 tbr, 30 tbn (default)\n    Metadata:\n      handler_name    : VideoHandler\n      vendor_id       : [0][0][0][0]\n[out#0/mp4 @ 000001c0e0a3ab00] Codec AVOption b:a (set bitrate (in bits/s)) has not been used for any stream. The most likely reason is either wrong type (e.g. a video option with no video streams) or that it is a private option of some decoder which was not actually used for any stream.\nStream mapping:\n  Stream #0:0 -> #0:0 (h264 (native) -> hevc (libx265))\nPress [q] to stop, [?] for help\n[libx265 @ 000001c0e2c8f040] Unknown option: \"aq-mode.\nx265 [info]: HEVC encoder version 4.1+190-8f11c33ac\nx265 [info]: build info [Windows][GCC 15.1.0][64 bit] 10bit\nx265 [info]: using cpu capabilities: MMX2 SSE2Fast LZCNT SSSE3 SSE4.2 AVX FMA3 BMI2 AVX2\nx265 [info]: Main 10 profile, Level-4 (Main tier)\nx265 [info]: Thread pool created using 12 threads\nx265 [info]: Slices                              : 1\nx265 [info]: frame threads / pool features       : 3 / wpp(17 rows)\nx265 [info]: Coding QT: max CU size, min CU size : 64 / 8\nx265 [info]: Residual QT: max TU size, max depth : 32 / 1 inter / 1 intra\nx265 [info]: ME / range / subpel / merge         : star / 57 / 3 / 3\nx265 [info]: Keyframe min / max / scenecut / bias  : 25 / 250 / 40 / 5.00 \nx265 [info]: Lookahead / bframes / badapt        : 25 / 4 / 2\nx265 [info]: b-pyramid / weightp / weightb       : 1 / 1 / 0\nx265 [info]: References / ref-limit  cu / depth  : 4 / on / on\nx265 [info]: AQ: mode / str / qg-size / cu-tree  : 2 / 1.0 / 32 / 1\nx265 [info]: Rate Control / qCompress            : ABR-1000 kbps / 0.60\nx265 [info]: VBV/HRD buffer / max-rate / init    : 1000 / 1000 / 0.750\nx265 [info]: tools: rect limit-modes rd=4 psy-rd=2.00 rdoq=2 psy-rdoq=1.00\nx265 [info]: tools: rskip mode=1 signhide tmvp strong-intra-smoothing lslices=4\nx265 [info]: tools: deblock sao dhdr10-info\nOutput #0, mp4, to 'C:\\Users\\Peter\\Desktop\\stuff\\MIUN\\quantitative_research\\video_compression\\compressed_videos\\BVI-HD\\hevc\\1\\TreeGrassFamily_1920x1080_30fps_hevc.mp4':\n  Metadata:\n    major_brand     : isom\n    minor_version   : 512\n    compatible_brands: isomiso2avc1mp41\n    encoder         : Lavf62.3.100\n  Stream #0:0(und): Video: hevc (hev1 / 0x31766568), yuv420p10le(tv, progressive), 1920x1080, q=2-31, 1000 kb/s, 30 fps, 15360 tbn (default)\n    Metadata:\n      encoder         : Lavc62.11.100 libx265\n      handler_name    : VideoHandler\n      vendor_id       : [0][0][0][0]\n    Side data:\n      cpb: bitrate max/min/avg: 1000000/0/1000000 buffer size: 1000000 vbv_delay: N/A\nframe=    0 fps=0.0 q=0.0 size=       0KiB time=N/A bitrate=N/A speed=N/A elapsed=0:00:01.03    \nframe=    0 fps=0.0 q=0.0 size=       0KiB time=N/A bitrate=N/A speed=N/A elapsed=0:00:01.60    \nframe=    0 fps=0.0 q=0.0 size=       0KiB time=N/A bitrate=N/A speed=N/A elapsed=0:00:02.14    \nframe=    0 fps=0.0 q=0.0 size=       0KiB time=N/A bitrate=N/A speed=N/A elapsed=0:00:02.66    \nframe=    0 fps=0.0 q=0.0 size=       0KiB time=N/A bitrate=N/A speed=N/A elapsed=0:00:03.18    \nframe=    0 fps=0.0 q=0.0 size=       0KiB time=N/A bitrate=N/A speed=N/A elapsed=0:00:03.69    \nframe=    0 fps=0.0 q=0.0 size=       0KiB time=N/A bitrate=N/A speed=N/A elapsed=0:00:04.22    \nframe=    0 fps=0.0 q=0.0 size=       0KiB time=N/A bitrate=N/A speed=N/A elapsed=0:00:04.76    \nframe=    0 fps=0.0 q=0.0 size=       0KiB time=N/A bitrate=N/A speed=N/A elapsed=0:00:05.29    \nframe=    0 fps=0.0 q=0.0 size=       0KiB time=N/A bitrate=N/A speed=N/A elapsed=0:00:05.81    \nframe=    0 fps=0.0 q=0.0 size=       0KiB time=N/A bitrate=N/A speed=N/A elapsed=0:00:06.33    \nframe=    0 fps=0.0 q=0.0 size=       0KiB time=N/A bitrate=N/A speed=N/A elapsed=0:00:06.87    \nframe=    0 fps=0.0 q=0.0 size=       0KiB time=N/A bitrate=N/A speed=N/A elapsed=0:00:07.39    \nframe=    0 fps=0.0 q=0.0 size=       0KiB time=N/A bitrate=N/A speed=N/A elapsed=0:00:07.92    \nframe=    1 fps=0.1 q=47.3 size=       0KiB time=-00:00:00.03 bitrate=N/A speed=N/A elapsed=0:00:08.46    \nframe=    1 fps=0.1 q=47.3 size=       0KiB time=-00:00:00.03 bitrate=N/A speed=N/A elapsed=0:00:08.97    \nframe=    1 fps=0.1 q=47.3 size=       0KiB time=-00:00:00.03 bitrate=N/A speed=N/A elapsed=0:00:09.49    \nframe=    2 fps=0.2 q=50.8 size=       0KiB time=00:00:00.00 bitrate=N/A speed=   0x elapsed=0:00:10.01    \nframe=    3 fps=0.3 q=51.0 size=       0KiB time=00:00:00.03 bitrate=  10.6kbits/s speed=0.00316x elapsed=0:00:10.54    \nframe=    4 fps=0.4 q=51.0 size=       0KiB time=00:00:00.06 bitrate=   5.3kbits/s speed=0.00602x elapsed=0:00:11.08    \nframe=    4 fps=0.3 q=51.0 size=       0KiB time=00:00:00.06 bitrate=   5.3kbits/s speed=0.00575x elapsed=0:00:11.60    \nframe=    4 fps=0.3 q=51.0 size=       0KiB time=00:00:00.06 bitrate=   5.3kbits/s speed=0.0055x elapsed=0:00:12.13    \nframe=    5 fps=0.4 q=51.0 size=       0KiB time=00:00:00.10 bitrate=   3.5kbits/s speed=0.00788x elapsed=0:00:12.68    \nframe=    6 fps=0.5 q=51.0 size=       0KiB time=00:00:00.13 bitrate=   2.6kbits/s speed=0.0101x elapsed=0:00:13.19    \nframe=    6 fps=0.4 q=51.0 size=       0KiB time=00:00:00.13 bitrate=   2.6kbits/s speed=0.00972x elapsed=0:00:13.71    \nframe=    6 fps=0.4 q=51.0 size=       0KiB time=00:00:00.13 bitrate=   2.6kbits/s speed=0.00937x elapsed=0:00:14.23    \nframe=    7 fps=0.5 q=47.1 size=       0KiB time=00:00:00.16 bitrate=   2.1kbits/s speed=0.0113x elapsed=0:00:14.74    \nframe=    7 fps=0.5 q=47.1 size=       0KiB time=00:00:00.16 bitrate=   2.1kbits/s speed=0.0109x elapsed=0:00:15.26    \nframe=    8 fps=0.5 q=50.3 size=       0KiB time=00:00:00.20 bitrate=   1.8kbits/s speed=0.0127x elapsed=0:00:15.78    \nframe=    8 fps=0.5 q=50.3 size=       0KiB time=00:00:00.20 bitrate=   1.8kbits/s speed=0.0122x elapsed=0:00:16.33    \nframe=    9 fps=0.5 q=50.0 size=       0KiB time=00:00:00.23 bitrate=   1.5kbits/s speed=0.0138x elapsed=0:00:16.87    \nframe=    9 fps=0.5 q=50.0 size=       0KiB time=00:00:00.23 bitrate=   1.5kbits/s speed=0.0134x elapsed=0:00:17.41    \nframe=   10 fps=0.6 q=50.0 size=       0KiB time=00:00:00.26 bitrate=   1.3kbits/s speed=0.0149x elapsed=0:00:17.94    \nframe=   10 fps=0.5 q=50.0 size=       0KiB time=00:00:00.26 bitrate=   1.3kbits/s speed=0.0144x elapsed=0:00:18.47    \nframe=   10 fps=0.5 q=50.0 size=       0KiB time=00:00:00.26 bitrate=   1.3kbits/s speed=0.014x elapsed=0:00:19.00    \nframe=   11 fps=0.6 q=45.3 size=       0KiB time=00:00:00.30 bitrate=   1.2kbits/s speed=0.0154x elapsed=0:00:19.52    \nframe=   12 fps=0.6 q=48.8 size=       0KiB time=00:00:00.33 bitrate=   1.1kbits/s speed=0.0166x elapsed=0:00:20.04    \nframe=   12 fps=0.6 q=48.8 size=       0KiB time=00:00:00.33 bitrate=   1.1kbits/s speed=0.0162x elapsed=0:00:20.55    \nframe=   13 fps=0.6 q=49.9 size=       0KiB time=00:00:00.36 bitrate=   1.0kbits/s speed=0.0174x elapsed=0:00:21.07    \nframe=   13 fps=0.6 q=49.9 size=       0KiB time=00:00:00.36 bitrate=   1.0kbits/s speed=0.0169x elapsed=0:00:21.66    \nframe=   13 fps=0.6 q=49.9 size=       0KiB time=00:00:00.36 bitrate=   1.0kbits/s speed=0.0165x elapsed=0:00:22.21    \nframe=   13 fps=0.6 q=49.9 size=       0KiB time=00:00:00.36 bitrate=   1.0kbits/s speed=0.0161x elapsed=0:00:22.73    \nframe=   13 fps=0.6 q=49.9 size=       0KiB time=00:00:00.36 bitrate=   1.0kbits/s speed=0.0157x elapsed=0:00:23.31    \nframe=   14 fps=0.6 q=51.0 size=       0KiB time=00:00:00.40 bitrate=   0.9kbits/s speed=0.0168x elapsed=0:00:23.83    \nframe=   14 fps=0.6 q=51.0 size=       0KiB time=00:00:00.40 bitrate=   0.9kbits/s speed=0.0164x elapsed=0:00:24.36    \nframe=   14 fps=0.6 q=51.0 size=       0KiB time=00:00:00.40 bitrate=   0.9kbits/s speed=0.0161x elapsed=0:00:24.87    \nframe=   14 fps=0.6 q=51.0 size=       0KiB time=00:00:00.40 bitrate=   0.9kbits/s speed=0.0157x elapsed=0:00:25.41    \nframe=   14 fps=0.5 q=51.0 size=       0KiB time=00:00:00.40 bitrate=   0.9kbits/s speed=0.0154x elapsed=0:00:25.93    \nframe=   14 fps=0.5 q=51.0 size=       0KiB time=00:00:00.40 bitrate=   0.9kbits/s speed=0.015x elapsed=0:00:26.58    \nframe=   14 fps=0.5 q=51.0 size=       0KiB time=00:00:00.40 bitrate=   0.9kbits/s speed=0.0147x elapsed=0:00:27.17    \nframe=   14 fps=0.5 q=51.0 size=       0KiB time=00:00:00.40 bitrate=   0.9kbits/s speed=0.0144x elapsed=0:00:27.79    \nframe=   15 fps=0.5 q=43.9 size=       0KiB time=00:00:00.40 bitrate=   0.9kbits/s speed=0.0141x elapsed=0:00:28.41    \nframe=   15 fps=0.5 q=43.9 size=       0KiB time=00:00:00.43 bitrate=   0.8kbits/s speed=0.0149x elapsed=0:00:28.99    \nframe=   15 fps=0.5 q=43.9 size=       0KiB time=00:00:00.43 bitrate=   0.8kbits/s speed=0.0147x elapsed=0:00:29.57    \nframe=   16 fps=0.5 q=48.8 size=       0KiB time=00:00:00.46 bitrate=   0.8kbits/s speed=0.0154x elapsed=0:00:30.23    \nframe=   16 fps=0.5 q=48.8 size=       0KiB time=00:00:00.46 bitrate=   0.8kbits/s speed=0.0152x elapsed=0:00:30.78    \nframe=   17 fps=0.5 q=51.0 size=       0KiB time=00:00:00.50 bitrate=   0.7kbits/s speed=0.016x elapsed=0:00:31.32    \nframe=   17 fps=0.5 q=51.0 size=       0KiB time=00:00:00.50 bitrate=   0.7kbits/s speed=0.0157x elapsed=0:00:31.85    \nframe=   17 fps=0.5 q=51.0 size=       0KiB time=00:00:00.50 bitrate=   0.7kbits/s speed=0.0154x elapsed=0:00:32.36    \nframe=   17 fps=0.5 q=51.0 size=       0KiB time=00:00:00.50 bitrate=   0.7kbits/s speed=0.0152x elapsed=0:00:32.90    \nframe=   17 fps=0.5 q=51.0 size=       0KiB time=00:00:00.50 bitrate=   0.7kbits/s speed=0.015x elapsed=0:00:33.42    \nframe=   17 fps=0.5 q=51.0 size=       0KiB time=00:00:00.50 bitrate=   0.7kbits/s speed=0.0147x elapsed=0:00:33.93    \nframe=   18 fps=0.5 q=50.1 size=       0KiB time=00:00:00.53 bitrate=   0.7kbits/s speed=0.0155x elapsed=0:00:34.46    \nframe=   19 fps=0.5 q=44.2 size=       0KiB time=00:00:00.56 bitrate=   0.6kbits/s speed=0.0162x elapsed=0:00:34.98    \nframe=   20 fps=0.6 q=48.2 size=       0KiB time=00:00:00.60 bitrate=   0.6kbits/s speed=0.0169x elapsed=0:00:35.52    \nframe=   21 fps=0.6 q=50.0 size=       0KiB time=00:00:00.63 bitrate=   0.6kbits/s speed=0.0176x elapsed=0:00:36.05    \nframe=   22 fps=0.6 q=50.1 size=       0KiB time=00:00:00.66 bitrate=   0.5kbits/s speed=0.0182x elapsed=0:00:36.59    \nframe=   22 fps=0.6 q=50.1 size=       0KiB time=00:00:00.66 bitrate=   0.5kbits/s speed=0.018x elapsed=0:00:37.13    \nframe=   22 fps=0.6 q=50.1 size=       0KiB time=00:00:00.66 bitrate=   0.5kbits/s speed=0.0177x elapsed=0:00:37.65    \nframe=   24 fps=0.6 q=48.1 size=       0KiB time=00:00:00.73 bitrate=   0.5kbits/s speed=0.0192x elapsed=0:00:38.18    \nframe=   24 fps=0.6 q=48.1 size=       0KiB time=00:00:00.73 bitrate=   0.5kbits/s speed=0.0189x elapsed=0:00:38.70    \nframe=   24 fps=0.6 q=48.1 size=       0KiB time=00:00:00.73 bitrate=   0.5kbits/s speed=0.0187x elapsed=0:00:39.22    \nframe=   25 fps=0.6 q=50.0 size=       0KiB time=00:00:00.76 bitrate=   0.5kbits/s speed=0.0193x elapsed=0:00:39.73    \nframe=   25 fps=0.6 q=50.0 size=       0KiB time=00:00:00.76 bitrate=   0.5kbits/s speed=0.019x elapsed=0:00:40.26    \nframe=   26 fps=0.6 q=50.1 size=       0KiB time=00:00:00.80 bitrate=   0.4kbits/s speed=0.0196x elapsed=0:00:40.78    \nframe=   27 fps=0.7 q=44.2 size=       0KiB time=00:00:00.83 bitrate=   0.4kbits/s speed=0.0202x elapsed=0:00:41.29    \nframe=   28 fps=0.7 q=47.5 size=       0KiB time=00:00:00.86 bitrate=   0.4kbits/s speed=0.0207x elapsed=0:00:41.80    \nframe=   28 fps=0.7 q=47.5 size=       0KiB time=00:00:00.86 bitrate=   0.4kbits/s speed=0.0205x elapsed=0:00:42.33    \nframe=   28 fps=0.7 q=47.5 size=       0KiB time=00:00:00.86 bitrate=   0.4kbits/s speed=0.0202x elapsed=0:00:42.86    \nframe=   29 fps=0.7 q=49.9 size=       0KiB time=00:00:00.90 bitrate=   0.4kbits/s speed=0.0207x elapsed=0:00:43.38    \nframe=   29 fps=0.7 q=49.9 size=       0KiB time=00:00:00.90 bitrate=   0.4kbits/s speed=0.0205x elapsed=0:00:43.96    \nframe=   29 fps=0.7 q=49.9 size=       0KiB time=00:00:00.90 bitrate=   0.4kbits/s speed=0.0202x elapsed=0:00:44.50    \nframe=   30 fps=0.7 q=49.9 size=       0KiB time=00:00:00.93 bitrate=   0.4kbits/s speed=0.0207x elapsed=0:00:45.04    \nframe=   31 fps=0.7 q=44.1 size=       0KiB time=00:00:00.96 bitrate=   0.4kbits/s speed=0.0212x elapsed=0:00:45.57    \nframe=   32 fps=0.7 q=47.7 size=       0KiB time=00:00:01.00 bitrate=   0.4kbits/s speed=0.0217x elapsed=0:00:46.11    \nframe=   32 fps=0.7 q=47.7 size=       0KiB time=00:00:01.00 bitrate=   0.4kbits/s speed=0.0214x elapsed=0:00:46.66    \nframe=   32 fps=0.7 q=47.7 size=       0KiB time=00:00:01.00 bitrate=   0.4kbits/s speed=0.0212x elapsed=0:00:47.19    \nframe=   32 fps=0.7 q=47.7 size=       0KiB time=00:00:01.00 bitrate=   0.4kbits/s speed=0.0209x elapsed=0:00:47.74    \nframe=   33 fps=0.7 q=49.9 size=       0KiB time=00:00:01.03 bitrate=   0.3kbits/s speed=0.0214x elapsed=0:00:48.28    \nframe=   33 fps=0.7 q=49.9 size=       0KiB time=00:00:01.03 bitrate=   0.3kbits/s speed=0.0212x elapsed=0:00:48.81    \nframe=   34 fps=0.7 q=49.0 size=       0KiB time=00:00:01.06 bitrate=   0.3kbits/s speed=0.0216x elapsed=0:00:49.32    \nframe=   35 fps=0.7 q=43.9 size=       0KiB time=00:00:01.10 bitrate=   0.3kbits/s speed=0.0221x elapsed=0:00:49.84    \nframe=   36 fps=0.7 q=47.6 size=       0KiB time=00:00:01.13 bitrate=   0.3kbits/s speed=0.0225x elapsed=0:00:50.39    \nframe=   36 fps=0.7 q=47.6 size=       0KiB time=00:00:01.13 bitrate=   0.3kbits/s speed=0.0223x elapsed=0:00:50.92    \nframe=   37 fps=0.7 q=50.0 size=       0KiB time=00:00:01.16 bitrate=   0.3kbits/s speed=0.0227x elapsed=0:00:51.45    \nframe=   37 fps=0.7 q=50.0 size=       0KiB time=00:00:01.16 bitrate=   0.3kbits/s speed=0.0224x elapsed=0:00:51.98    \nframe=   37 fps=0.7 q=50.0 size=       0KiB time=00:00:01.16 bitrate=   0.3kbits/s speed=0.0222x elapsed=0:00:52.52    \nframe=   37 fps=0.7 q=50.0 size=       0KiB time=00:00:01.16 bitrate=   0.3kbits/s speed=0.022x elapsed=0:00:53.04    \nframe=   38 fps=0.7 q=49.8 size=       0KiB time=00:00:01.20 bitrate=   0.3kbits/s speed=0.0224x elapsed=0:00:53.55    \nframe=   38 fps=0.7 q=49.8 size=       0KiB time=00:00:01.20 bitrate=   0.3kbits/s speed=0.0222x elapsed=0:00:54.07    \nframe=   39 fps=0.7 q=44.3 size=       0KiB time=00:00:01.23 bitrate=   0.3kbits/s speed=0.0226x elapsed=0:00:54.61    \nframe=   40 fps=0.7 q=47.8 size=       0KiB time=00:00:01.26 bitrate=   0.3kbits/s speed=0.023x elapsed=0:00:55.13    \nframe=   40 fps=0.7 q=47.8 size=       0KiB time=00:00:01.26 bitrate=   0.3kbits/s speed=0.0228x elapsed=0:00:55.65    \nframe=   41 fps=0.7 q=49.8 size=       0KiB time=00:00:01.30 bitrate=   0.3kbits/s speed=0.0231x elapsed=0:00:56.17    \nframe=   41 fps=0.7 q=49.8 size=       0KiB time=00:00:01.30 bitrate=   0.3kbits/s speed=0.0229x elapsed=0:00:56.70    \nframe=   42 fps=0.7 q=49.1 size=       0KiB time=00:00:01.33 bitrate=   0.3kbits/s speed=0.0233x elapsed=0:00:57.21    \nframe=   42 fps=0.7 q=49.1 size=       0KiB time=00:00:01.33 bitrate=   0.3kbits/s speed=0.0231x elapsed=0:00:57.75    \nframe=   42 fps=0.7 q=49.1 size=       0KiB time=00:00:01.33 bitrate=   0.3kbits/s speed=0.0229x elapsed=0:00:58.28    \nframe=   43 fps=0.7 q=43.6 size=       0KiB time=00:00:01.36 bitrate=   0.3kbits/s speed=0.0232x elapsed=0:00:58.80    \nframe=   44 fps=0.7 q=47.6 size=       0KiB time=00:00:01.40 bitrate=   0.3kbits/s speed=0.0236x elapsed=0:00:59.33    \nframe=   45 fps=0.8 q=49.1 size=       0KiB time=00:00:01.43 bitrate=   0.2kbits/s speed=0.0239x elapsed=0:00:59.85    \nframe=   45 fps=0.7 q=49.1 size=       0KiB time=00:00:01.43 bitrate=   0.2kbits/s speed=0.0237x elapsed=0:01:00.37    \nframe=   45 fps=0.7 q=49.1 size=       0KiB time=00:00:01.43 bitrate=   0.2kbits/s speed=0.0235x elapsed=0:01:00.90    \nframe=   45 fps=0.7 q=49.1 size=       0KiB time=00:00:01.43 bitrate=   0.2kbits/s speed=0.0233x elapsed=0:01:01.42    \nframe=   46 fps=0.7 q=49.8 size=       0KiB time=00:00:01.46 bitrate=   0.2kbits/s speed=0.0237x elapsed=0:01:01.95    \nframe=   47 fps=0.8 q=44.2 size=       0KiB time=00:00:01.50 bitrate=   0.2kbits/s speed=0.024x elapsed=0:01:02.49    \nframe=   47 fps=0.7 q=44.2 size=       0KiB time=00:00:01.50 bitrate=   0.2kbits/s speed=0.0238x elapsed=0:01:03.01    \nframe=   47 fps=0.7 q=44.2 size=       0KiB time=00:00:01.50 bitrate=   0.2kbits/s speed=0.0236x elapsed=0:01:03.59    \nframe=   48 fps=0.7 q=47.3 size=       0KiB time=00:00:01.53 bitrate=   0.2kbits/s speed=0.0239x elapsed=0:01:04.14    \nframe=   48 fps=0.7 q=47.3 size=       0KiB time=00:00:01.53 bitrate=   0.2kbits/s speed=0.0237x elapsed=0:01:04.72    \nframe=   48 fps=0.7 q=47.3 size=       0KiB time=00:00:01.53 bitrate=   0.2kbits/s speed=0.0235x elapsed=0:01:05.29    \nframe=   48 fps=0.7 q=47.3 size=       0KiB time=00:00:01.53 bitrate=   0.2kbits/s speed=0.0233x elapsed=0:01:05.80    \nframe=   49 fps=0.7 q=49.8 size=       0KiB time=00:00:01.56 bitrate=   0.2kbits/s speed=0.0236x elapsed=0:01:06.33    \nframe=   50 fps=0.7 q=48.9 size=       0KiB time=00:00:01.60 bitrate=   0.2kbits/s speed=0.0239x elapsed=0:01:06.87    \nframe=   50 fps=0.7 q=48.9 size=       0KiB time=00:00:01.60 bitrate=   0.2kbits/s speed=0.0237x elapsed=0:01:07.38    \nframe=   50 fps=0.7 q=48.9 size=       0KiB time=00:00:01.60 bitrate=   0.2kbits/s speed=0.0236x elapsed=0:01:07.89    \nframe=   50 fps=0.7 q=48.9 size=       0KiB time=00:00:01.60 bitrate=   0.2kbits/s speed=0.0234x elapsed=0:01:08.41    \nframe=   51 fps=0.7 q=43.7 size=       0KiB time=00:00:01.63 bitrate=   0.2kbits/s speed=0.0237x elapsed=0:01:08.98    \nframe=   52 fps=0.7 q=47.6 size=       0KiB time=00:00:01.66 bitrate=   0.2kbits/s speed=0.024x elapsed=0:01:09.51    \nframe=   52 fps=0.7 q=47.6 size=       0KiB time=00:00:01.66 bitrate=   0.2kbits/s speed=0.0238x elapsed=0:01:10.03    \nframe=   52 fps=0.7 q=47.6 size=       0KiB time=00:00:01.66 bitrate=   0.2kbits/s speed=0.0236x elapsed=0:01:10.54    \nframe=   53 fps=0.7 q=49.1 size=       0KiB time=00:00:01.70 bitrate=   0.2kbits/s speed=0.0239x elapsed=0:01:11.08    \nframe=   53 fps=0.7 q=49.1 size=       0KiB time=00:00:01.70 bitrate=   0.2kbits/s speed=0.0237x elapsed=0:01:11.61    \nframe=   54 fps=0.7 q=49.1 size=       0KiB time=00:00:01.73 bitrate=   0.2kbits/s speed=0.024x elapsed=0:01:12.13    \nframe=   54 fps=0.7 q=49.1 size=       0KiB time=00:00:01.73 bitrate=   0.2kbits/s speed=0.0239x elapsed=0:01:12.67    \nframe=   55 fps=0.8 q=44.0 size=       0KiB time=00:00:01.76 bitrate=   0.2kbits/s speed=0.0241x elapsed=0:01:13.18    \nframe=   56 fps=0.8 q=47.4 size=       0KiB time=00:00:01.80 bitrate=   0.2kbits/s speed=0.0244x elapsed=0:01:13.69    \nframe=   57 fps=0.8 q=49.9 size=       0KiB time=00:00:01.80 bitrate=   0.2kbits/s speed=0.0243x elapsed=0:01:14.21    \nframe=   57 fps=0.8 q=49.9 size=       0KiB time=00:00:01.83 bitrate=   0.2kbits/s speed=0.0245x elapsed=0:01:14.74    \nframe=   57 fps=0.8 q=49.9 size=       0KiB time=00:00:01.83 bitrate=   0.2kbits/s speed=0.0244x elapsed=0:01:15.26    \nframe=   58 fps=0.8 q=49.1 size=       0KiB time=00:00:01.86 bitrate=   0.2kbits/s speed=0.0246x elapsed=0:01:15.78    \nframe=   58 fps=0.8 q=49.1 size=       0KiB time=00:00:01.86 bitrate=   0.2kbits/s speed=0.0245x elapsed=0:01:16.30    \nframe=   58 fps=0.8 q=49.1 size=       0KiB time=00:00:01.86 bitrate=   0.2kbits/s speed=0.0243x elapsed=0:01:16.83    \nframe=   59 fps=0.8 q=43.9 size=       0KiB time=00:00:01.90 bitrate=   0.2kbits/s speed=0.0246x elapsed=0:01:17.34    \nframe=   61 fps=0.8 q=49.9 size=       0KiB time=00:00:01.96 bitrate=   0.2kbits/s speed=0.0253x elapsed=0:01:17.86    \nframe=   61 fps=0.8 q=49.9 size=       0KiB time=00:00:01.96 bitrate=   0.2kbits/s speed=0.0251x elapsed=0:01:18.38    \nframe=   62 fps=0.8 q=49.1 size=       0KiB time=00:00:02.00 bitrate=   0.2kbits/s speed=0.0253x elapsed=0:01:18.90    \nframe=   62 fps=0.8 q=49.1 size=       0KiB time=00:00:02.00 bitrate=   0.2kbits/s speed=0.0252x elapsed=0:01:19.42    \nframe=   63 fps=0.8 q=44.0 size=       0KiB time=00:00:02.03 bitrate=   0.2kbits/s speed=0.0254x elapsed=0:01:19.94    \nframe=   63 fps=0.8 q=44.0 size=       0KiB time=00:00:02.03 bitrate=   0.2kbits/s speed=0.0253x elapsed=0:01:20.46    \nframe=   65 fps=0.8 q=49.9 size=       0KiB time=00:00:02.10 bitrate=   0.2kbits/s speed=0.0259x elapsed=0:01:20.98    \nframe=   66 fps=0.8 q=49.0 size=       0KiB time=00:00:02.13 bitrate=   0.2kbits/s speed=0.0262x elapsed=0:01:21.51    \nframe=   66 fps=0.8 q=49.0 size=       0KiB time=00:00:02.13 bitrate=   0.2kbits/s speed=0.026x elapsed=0:01:22.05    \nframe=   66 fps=0.8 q=49.0 size=       0KiB time=00:00:02.13 bitrate=   0.2kbits/s speed=0.0258x elapsed=0:01:22.60    \nframe=   66 fps=0.8 q=49.0 size=       0KiB time=00:00:02.13 bitrate=   0.2kbits/s speed=0.0256x elapsed=0:01:23.17    \nframe=   66 fps=0.8 q=49.0 size=       0KiB time=00:00:02.13 bitrate=   0.2kbits/s speed=0.0255x elapsed=0:01:23.74    \nframe=   66 fps=0.8 q=49.0 size=       0KiB time=00:00:02.13 bitrate=   0.2kbits/s speed=0.0253x elapsed=0:01:24.42    \nframe=   66 fps=0.8 q=49.0 size=       0KiB time=00:00:02.13 bitrate=   0.2kbits/s speed=0.0251x elapsed=0:01:25.02    \nframe=   67 fps=0.8 q=43.7 size=       0KiB time=00:00:02.16 bitrate=   0.2kbits/s speed=0.0253x elapsed=0:01:25.60    \nframe=   67 fps=0.8 q=43.7 size=       0KiB time=00:00:02.16 bitrate=   0.2kbits/s speed=0.0252x elapsed=0:01:26.13    \nframe=   67 fps=0.8 q=43.7 size=       0KiB time=00:00:02.16 bitrate=   0.2kbits/s speed=0.025x elapsed=0:01:26.65    \nframe=   69 fps=0.8 q=49.2 size=     256KiB time=00:00:02.23 bitrate= 939.2kbits/s speed=0.0256x elapsed=0:01:27.16    \nframe=   69 fps=0.8 q=49.2 size=     256KiB time=00:00:02.23 bitrate= 939.2kbits/s speed=0.0255x elapsed=0:01:27.69    \nframe=   70 fps=0.8 q=49.1 size=     256KiB time=00:00:02.26 bitrate= 925.4kbits/s speed=0.0257x elapsed=0:01:28.21    \nframe=   70 fps=0.8 q=49.1 size=     256KiB time=00:00:02.26 bitrate= 925.4kbits/s speed=0.0255x elapsed=0:01:28.75    \nframe=   70 fps=0.8 q=49.1 size=     256KiB time=00:00:02.26 bitrate= 925.4kbits/s speed=0.0254x elapsed=0:01:29.27    \nframe=   70 fps=0.8 q=49.1 size=     256KiB time=00:00:02.26 bitrate= 925.4kbits/s speed=0.0252x elapsed=0:01:29.79    \nframe=   70 fps=0.8 q=49.1 size=     256KiB time=00:00:02.26 bitrate= 925.4kbits/s speed=0.0251x elapsed=0:01:30.30    \nframe=   71 fps=0.8 q=43.8 size=     256KiB time=00:00:02.30 bitrate= 912.0kbits/s speed=0.0253x elapsed=0:01:30.82    \nframe=   71 fps=0.8 q=43.8 size=     256KiB time=00:00:02.30 bitrate= 912.0kbits/s speed=0.0252x elapsed=0:01:31.38    \nframe=   71 fps=0.8 q=43.8 size=     256KiB time=00:00:02.30 bitrate= 912.0kbits/s speed=0.025x elapsed=0:01:31.90    \nframe=   71 fps=0.8 q=43.8 size=     256KiB time=00:00:02.30 bitrate= 912.0kbits/s speed=0.0249x elapsed=0:01:32.43    \nframe=   72 fps=0.8 q=46.7 size=     256KiB time=00:00:02.33 bitrate= 898.9kbits/s speed=0.0251x elapsed=0:01:32.97    \nframe=   72 fps=0.8 q=46.7 size=     256KiB time=00:00:02.33 bitrate= 898.9kbits/s speed=0.025x elapsed=0:01:33.49    \nframe=   72 fps=0.8 q=46.7 size=     256KiB time=00:00:02.33 bitrate= 898.9kbits/s speed=0.0248x elapsed=0:01:34.01    \nframe=   73 fps=0.8 q=48.7 size=     256KiB time=00:00:02.36 bitrate= 886.3kbits/s speed=0.025x elapsed=0:01:34.53    \nframe=   74 fps=0.8 q=49.0 size=     256KiB time=00:00:02.40 bitrate= 874.0kbits/s speed=0.0252x elapsed=0:01:35.06    \nframe=   74 fps=0.8 q=49.0 size=     256KiB time=00:00:02.40 bitrate= 874.0kbits/s speed=0.0251x elapsed=0:01:35.60    \nframe=   74 fps=0.8 q=49.0 size=     256KiB time=00:00:02.40 bitrate= 874.0kbits/s speed=0.025x elapsed=0:01:36.14    \nframe=   75 fps=0.8 q=43.9 size=     256KiB time=00:00:02.43 bitrate= 862.0kbits/s speed=0.0252x elapsed=0:01:36.66    \nframe=   75 fps=0.8 q=43.9 size=     256KiB time=00:00:02.43 bitrate= 862.0kbits/s speed=0.025x elapsed=0:01:37.18    \nframe=   76 fps=0.8 q=46.9 size=     256KiB time=00:00:02.46 bitrate= 850.3kbits/s speed=0.0252x elapsed=0:01:37.71    \nframe=   77 fps=0.8 q=48.9 size=     256KiB time=00:00:02.50 bitrate= 839.0kbits/s speed=0.0255x elapsed=0:01:38.22    \nframe=   77 fps=0.8 q=48.9 size=     256KiB time=00:00:02.50 bitrate= 839.0kbits/s speed=0.0253x elapsed=0:01:38.77    \nframe=   77 fps=0.8 q=48.9 size=     256KiB time=00:00:02.50 bitrate= 839.0kbits/s speed=0.0252x elapsed=0:01:39.28    \nframe=   78 fps=0.8 q=49.0 size=     256KiB time=00:00:02.53 bitrate= 828.0kbits/s speed=0.0254x elapsed=0:01:39.82    \nframe=   78 fps=0.8 q=49.0 size=     256KiB time=00:00:02.53 bitrate= 828.0kbits/s speed=0.0252x elapsed=0:01:40.33    \nframe=   78 fps=0.8 q=49.0 size=     256KiB time=00:00:02.53 bitrate= 828.0kbits/s speed=0.0251x elapsed=0:01:40.85    \nframe=   79 fps=0.8 q=43.9 size=     256KiB time=00:00:02.56 bitrate= 817.2kbits/s speed=0.0253x elapsed=0:01:41.37    \nframe=   79 fps=0.8 q=43.9 size=     256KiB time=00:00:02.56 bitrate= 817.2kbits/s speed=0.0252x elapsed=0:01:41.88    \nframe=   80 fps=0.8 q=46.7 size=     256KiB time=00:00:02.60 bitrate= 806.7kbits/s speed=0.0254x elapsed=0:01:42.39    \nframe=   80 fps=0.8 q=46.7 size=     256KiB time=00:00:02.60 bitrate= 806.7kbits/s speed=0.0253x elapsed=0:01:42.92    \nframe=   81 fps=0.8 q=49.0 size=     256KiB time=00:00:02.63 bitrate= 796.5kbits/s speed=0.0255x elapsed=0:01:43.46    \nframe=   81 fps=0.8 q=49.0 size=     256KiB time=00:00:02.63 bitrate= 796.5kbits/s speed=0.0253x elapsed=0:01:43.99    \nframe=   81 fps=0.8 q=49.0 size=     256KiB time=00:00:02.63 bitrate= 796.5kbits/s speed=0.0252x elapsed=0:01:44.50    \nframe=   82 fps=0.8 q=49.0 size=     256KiB time=00:00:02.66 bitrate= 786.6kbits/s speed=0.0254x elapsed=0:01:45.02    \nframe=   82 fps=0.8 q=49.0 size=     256KiB time=00:00:02.66 bitrate= 786.6kbits/s speed=0.0253x elapsed=0:01:45.55    \nframe=   82 fps=0.8 q=49.0 size=     256KiB time=00:00:02.66 bitrate= 786.6kbits/s speed=0.0251x elapsed=0:01:46.08    \nframe=   83 fps=0.8 q=43.9 size=     256KiB time=00:00:02.70 bitrate= 776.9kbits/s speed=0.0253x elapsed=0:01:46.61    \nframe=   83 fps=0.8 q=43.9 size=     256KiB time=00:00:02.70 bitrate= 776.9kbits/s speed=0.0252x elapsed=0:01:47.11    \nframe=   83 fps=0.8 q=43.9 size=     256KiB time=00:00:02.70 bitrate= 776.9kbits/s speed=0.0251x elapsed=0:01:47.64    \nframe=   84 fps=0.8 q=47.1 size=     256KiB time=00:00:02.73 bitrate= 767.4kbits/s speed=0.0253x elapsed=0:01:48.17    \nframe=   85 fps=0.8 q=49.0 size=     256KiB time=00:00:02.76 bitrate= 758.1kbits/s speed=0.0255x elapsed=0:01:48.69    \nframe=   86 fps=0.8 q=49.0 size=     256KiB time=00:00:02.80 bitrate= 749.1kbits/s speed=0.0256x elapsed=0:01:49.21    \nframe=   86 fps=0.8 q=49.0 size=     256KiB time=00:00:02.80 bitrate= 749.1kbits/s speed=0.0255x elapsed=0:01:49.79    \nframe=   86 fps=0.8 q=49.0 size=     256KiB time=00:00:02.80 bitrate= 749.1kbits/s speed=0.0254x elapsed=0:01:50.35    \nframe=   86 fps=0.8 q=49.0 size=     256KiB time=00:00:02.80 bitrate= 749.1kbits/s speed=0.0252x elapsed=0:01:50.93    \nframe=   86 fps=0.8 q=49.0 size=     256KiB time=00:00:02.80 bitrate= 749.1kbits/s speed=0.0251x elapsed=0:01:51.47    \nframe=   86 fps=0.8 q=49.0 size=     256KiB time=00:00:02.80 bitrate= 749.1kbits/s speed=0.025x elapsed=0:01:51.99    \nframe=   87 fps=0.8 q=44.1 size=     256KiB time=00:00:02.83 bitrate= 740.3kbits/s speed=0.0252x elapsed=0:01:52.50    \nframe=   87 fps=0.8 q=44.1 size=     256KiB time=00:00:02.83 bitrate= 740.3kbits/s speed=0.0251x elapsed=0:01:53.02    \nframe=   88 fps=0.8 q=47.1 size=     256KiB time=00:00:02.86 bitrate= 731.7kbits/s speed=0.0252x elapsed=0:01:53.54    \nframe=   89 fps=0.8 q=48.8 size=     256KiB time=00:00:02.90 bitrate= 723.3kbits/s speed=0.0254x elapsed=0:01:54.07    \nframe=   89 fps=0.8 q=48.8 size=     256KiB time=00:00:02.90 bitrate= 723.3kbits/s speed=0.0253x elapsed=0:01:54.59    \nframe=   89 fps=0.8 q=48.8 size=     256KiB time=00:00:02.90 bitrate= 723.3kbits/s speed=0.0252x elapsed=0:01:55.11    \nframe=   90 fps=0.8 q=49.6 size=     256KiB time=00:00:02.93 bitrate= 715.1kbits/s speed=0.0254x elapsed=0:01:55.65    \nframe=   90 fps=0.8 q=49.6 size=     256KiB time=00:00:02.93 bitrate= 715.1kbits/s speed=0.0253x elapsed=0:01:56.17    \nframe=   90 fps=0.8 q=49.6 size=     256KiB time=00:00:02.93 bitrate= 715.1kbits/s speed=0.0251x elapsed=0:01:56.71    \nframe=   90 fps=0.8 q=49.6 size=     256KiB time=00:00:02.93 bitrate= 715.1kbits/s speed=0.025x elapsed=0:01:57.33    \nframe=   90 fps=0.8 q=49.6 size=     256KiB time=00:00:02.93 bitrate= 715.1kbits/s speed=0.0249x elapsed=0:01:57.92    \nframe=   91 fps=0.8 q=44.1 size=     256KiB time=00:00:02.96 bitrate= 707.0kbits/s speed=0.025x elapsed=0:01:58.48    \nframe=   91 fps=0.8 q=44.1 size=     256KiB time=00:00:02.96 bitrate= 707.0kbits/s speed=0.0249x elapsed=0:01:59.09    \nframe=   91 fps=0.8 q=44.1 size=     256KiB time=00:00:02.96 bitrate= 707.0kbits/s speed=0.0248x elapsed=0:01:59.74    \nframe=   91 fps=0.8 q=44.1 size=     256KiB time=00:00:02.96 bitrate= 707.0kbits/s speed=0.0247x elapsed=0:02:00.31    \nframe=   91 fps=0.8 q=44.1 size=     256KiB time=00:00:02.96 bitrate= 707.0kbits/s speed=0.0245x elapsed=0:02:00.88    \nframe=   91 fps=0.7 q=44.1 size=     256KiB time=00:00:02.96 bitrate= 707.0kbits/s speed=0.0244x elapsed=0:02:01.43    \nframe=   91 fps=0.7 q=44.1 size=     256KiB time=00:00:02.96 bitrate= 707.0kbits/s speed=0.0243x elapsed=0:02:02.00    \nframe=   91 fps=0.7 q=44.1 size=     256KiB time=00:00:02.96 bitrate= 707.0kbits/s speed=0.0242x elapsed=0:02:02.53    \nframe=   92 fps=0.7 q=46.9 size=     256KiB time=00:00:03.00 bitrate= 699.2kbits/s speed=0.0244x elapsed=0:02:03.07    \nframe=   92 fps=0.7 q=46.9 size=     256KiB time=00:00:03.00 bitrate= 699.2kbits/s speed=0.0243x elapsed=0:02:03.62    \nframe=   92 fps=0.7 q=46.9 size=     256KiB time=00:00:03.00 bitrate= 699.2kbits/s speed=0.0242x elapsed=0:02:04.15    \nframe=   92 fps=0.7 q=46.9 size=     256KiB time=00:00:03.00 bitrate= 699.2kbits/s speed=0.0241x elapsed=0:02:04.71    \nframe=   93 fps=0.7 q=48.9 size=     256KiB time=00:00:03.03 bitrate= 691.5kbits/s speed=0.0242x elapsed=0:02:05.23    \nframe=   94 fps=0.7 q=49.5 size=     256KiB time=00:00:03.06 bitrate= 684.0kbits/s speed=0.0244x elapsed=0:02:05.74    \nframe=   94 fps=0.7 q=49.5 size=     256KiB time=00:00:03.06 bitrate= 684.0kbits/s speed=0.0243x elapsed=0:02:06.25    \nframe=   94 fps=0.7 q=49.5 size=     256KiB time=00:00:03.06 bitrate= 684.0kbits/s speed=0.0242x elapsed=0:02:06.78    \nframe=   95 fps=0.7 q=44.2 size=     256KiB time=00:00:03.10 bitrate= 676.6kbits/s speed=0.0243x elapsed=0:02:07.31    \nframe=   95 fps=0.7 q=44.2 size=     256KiB time=00:00:03.10 bitrate= 676.6kbits/s speed=0.0243x elapsed=0:02:07.82    \nframe=   97 fps=0.8 q=48.8 size=     256KiB time=00:00:03.16 bitrate= 662.4kbits/s speed=0.0247x elapsed=0:02:08.33    \nframe=   98 fps=0.8 q=49.3 size=     256KiB time=00:00:03.20 bitrate= 655.5kbits/s speed=0.0248x elapsed=0:02:08.85    \nframe=   98 fps=0.8 q=49.3 size=     256KiB time=00:00:03.20 bitrate= 655.5kbits/s speed=0.0247x elapsed=0:02:09.38    \nframe=   99 fps=0.8 q=44.1 size=     256KiB time=00:00:03.23 bitrate= 648.7kbits/s speed=0.0249x elapsed=0:02:09.91    \nframe=   99 fps=0.8 q=44.1 size=     256KiB time=00:00:03.23 bitrate= 648.7kbits/s speed=0.0248x elapsed=0:02:10.43    \nframe=   99 fps=0.8 q=44.1 size=     256KiB time=00:00:03.23 bitrate= 648.7kbits/s speed=0.0247x elapsed=0:02:10.98    \nframe=  102 fps=0.8 q=49.6 size=     256KiB time=00:00:03.33 bitrate= 629.3kbits/s speed=0.0253x elapsed=0:02:11.51    \nframe=  102 fps=0.8 q=49.6 size=     256KiB time=00:00:03.33 bitrate= 629.3kbits/s speed=0.0252x elapsed=0:02:12.03    \nframe=  102 fps=0.8 q=49.6 size=     256KiB time=00:00:03.33 bitrate= 629.3kbits/s speed=0.0251x elapsed=0:02:12.54    \nframe=  103 fps=0.8 q=44.2 size=     256KiB time=00:00:03.36 bitrate= 623.0kbits/s speed=0.0253x elapsed=0:02:13.06    \nframe=  103 fps=0.8 q=44.2 size=     256KiB time=00:00:03.36 bitrate= 623.0kbits/s speed=0.0252x elapsed=0:02:13.60    \nframe=  103 fps=0.8 q=44.2 size=     256KiB time=00:00:03.36 bitrate= 623.0kbits/s speed=0.0251x elapsed=0:02:14.18    \nframe=  103 fps=0.8 q=44.2 size=     256KiB time=00:00:03.36 bitrate= 623.0kbits/s speed=0.025x elapsed=0:02:14.69    \nframe=  103 fps=0.8 q=44.2 size=     256KiB time=00:00:03.36 bitrate= 623.0kbits/s speed=0.0249x elapsed=0:02:15.21    \nframe=  104 fps=0.8 q=47.4 size=     256KiB time=00:00:03.40 bitrate= 616.9kbits/s speed=0.025x elapsed=0:02:15.75    \nframe=  105 fps=0.8 q=49.4 size=     256KiB time=00:00:03.43 bitrate= 610.9kbits/s speed=0.0252x elapsed=0:02:16.29    \nframe=  106 fps=0.8 q=49.8 size=     256KiB time=00:00:03.46 bitrate= 605.0kbits/s speed=0.0253x elapsed=0:02:16.82    \nframe=  106 fps=0.8 q=49.8 size=     256KiB time=00:00:03.46 bitrate= 605.0kbits/s speed=0.0252x elapsed=0:02:17.36    \nframe=  106 fps=0.8 q=49.8 size=     256KiB time=00:00:03.46 bitrate= 605.0kbits/s speed=0.0251x elapsed=0:02:17.88    \nframe=  107 fps=0.8 q=44.4 size=     256KiB time=00:00:03.50 bitrate= 599.3kbits/s speed=0.0253x elapsed=0:02:18.43    \nframe=  108 fps=0.8 q=47.7 size=     256KiB time=00:00:03.53 bitrate= 593.6kbits/s speed=0.0254x elapsed=0:02:18.95    \nframe=  109 fps=0.8 q=49.8 size=     256KiB time=00:00:03.56 bitrate= 588.1kbits/s speed=0.0256x elapsed=0:02:19.47    \nframe=  109 fps=0.8 q=49.8 size=     256KiB time=00:00:03.56 bitrate= 588.1kbits/s speed=0.0255x elapsed=0:02:19.99    \nframe=  109 fps=0.8 q=49.8 size=     256KiB time=00:00:03.56 bitrate= 588.1kbits/s speed=0.0254x elapsed=0:02:20.53    \nframe=  110 fps=0.8 q=49.5 size=     256KiB time=00:00:03.60 bitrate= 582.6kbits/s speed=0.0255x elapsed=0:02:21.06    \nframe=  110 fps=0.8 q=49.5 size=     256KiB time=00:00:03.60 bitrate= 582.6kbits/s speed=0.0254x elapsed=0:02:21.57    \nframe=  111 fps=0.8 q=44.3 size=     256KiB time=00:00:03.63 bitrate= 577.3kbits/s speed=0.0256x elapsed=0:02:22.09    \nframe=  112 fps=0.8 q=48.5 size=     256KiB time=00:00:03.66 bitrate= 572.0kbits/s speed=0.0257x elapsed=0:02:22.64    \nframe=  112 fps=0.8 q=48.5 size=     256KiB time=00:00:03.66 bitrate= 572.0kbits/s speed=0.0256x elapsed=0:02:23.17    \nframe=  112 fps=0.8 q=48.5 size=     256KiB time=00:00:03.66 bitrate= 572.0kbits/s speed=0.0255x elapsed=0:02:23.71    \nframe=  112 fps=0.8 q=48.5 size=     256KiB time=00:00:03.66 bitrate= 572.0kbits/s speed=0.0254x elapsed=0:02:24.24    \nframe=  112 fps=0.8 q=48.5 size=     256KiB time=00:00:03.66 bitrate= 572.0kbits/s speed=0.0253x elapsed=0:02:24.76    \nframe=  113 fps=0.8 q=49.4 size=     256KiB time=00:00:03.70 bitrate= 566.9kbits/s speed=0.0255x elapsed=0:02:25.28    \nframe=  114 fps=0.8 q=49.5 size=     256KiB time=00:00:03.73 bitrate= 561.8kbits/s speed=0.0256x elapsed=0:02:25.83    \nframe=  114 fps=0.8 q=49.5 size=     256KiB time=00:00:03.73 bitrate= 561.8kbits/s speed=0.0255x elapsed=0:02:26.37    \nframe=  114 fps=0.8 q=49.5 size=     256KiB time=00:00:03.73 bitrate= 561.8kbits/s speed=0.0254x elapsed=0:02:26.91    \nframe=  115 fps=0.8 q=49.6 size=     256KiB time=00:00:03.76 bitrate= 556.9kbits/s speed=0.0255x elapsed=0:02:27.44    \nframe=  115 fps=0.8 q=49.6 size=     256KiB time=00:00:03.76 bitrate= 556.9kbits/s speed=0.0255x elapsed=0:02:27.99    \nframe=  116 fps=0.8 q=44.1 size=     256KiB time=00:00:03.80 bitrate= 552.0kbits/s speed=0.0256x elapsed=0:02:28.52    \nframe=  116 fps=0.8 q=44.1 size=     256KiB time=00:00:03.80 bitrate= 552.0kbits/s speed=0.0255x elapsed=0:02:29.04    \nframe=  117 fps=0.8 q=47.3 size=     256KiB time=00:00:03.83 bitrate= 547.2kbits/s speed=0.0256x elapsed=0:02:29.57    \nframe=  117 fps=0.8 q=47.3 size=     256KiB time=00:00:03.83 bitrate= 547.2kbits/s speed=0.0255x elapsed=0:02:30.11    \nframe=  118 fps=0.8 q=49.5 size=     256KiB time=00:00:03.86 bitrate= 542.5kbits/s speed=0.0257x elapsed=0:02:30.63    \nframe=  119 fps=0.8 q=49.5 size=     256KiB time=00:00:03.90 bitrate= 537.8kbits/s speed=0.0258x elapsed=0:02:31.15    \nframe=  119 fps=0.8 q=49.5 size=     256KiB time=00:00:03.90 bitrate= 537.8kbits/s speed=0.0257x elapsed=0:02:31.67    \nframe=  119 fps=0.8 q=49.5 size=     256KiB time=00:00:03.90 bitrate= 537.8kbits/s speed=0.0256x elapsed=0:02:32.19    \nframe=  119 fps=0.8 q=49.5 size=     256KiB time=00:00:03.90 bitrate= 537.8kbits/s speed=0.0255x elapsed=0:02:32.71    \nframe=  120 fps=0.8 q=44.3 size=     256KiB time=00:00:03.93 bitrate= 533.3kbits/s speed=0.0257x elapsed=0:02:33.24    \nframe=  120 fps=0.8 q=44.3 size=     256KiB time=00:00:03.93 bitrate= 533.3kbits/s speed=0.0256x elapsed=0:02:33.76    \nframe=  121 fps=0.8 q=47.1 size=     256KiB time=00:00:03.96 bitrate= 528.8kbits/s speed=0.0257x elapsed=0:02:34.28    \nframe=  121 fps=0.8 q=47.1 size=     256KiB time=00:00:03.96 bitrate= 528.8kbits/s speed=0.0256x elapsed=0:02:34.84    \nframe=  121 fps=0.8 q=47.1 size=     256KiB time=00:00:03.96 bitrate= 528.8kbits/s speed=0.0255x elapsed=0:02:35.44    \nframe=  121 fps=0.8 q=47.1 size=     256KiB time=00:00:03.96 bitrate= 528.8kbits/s speed=0.0254x elapsed=0:02:36.07    \nframe=  122 fps=0.8 q=49.6 size=     256KiB time=00:00:04.00 bitrate= 524.4kbits/s speed=0.0255x elapsed=0:02:36.71    \nframe=  122 fps=0.8 q=49.6 size=     256KiB time=00:00:04.00 bitrate= 524.4kbits/s speed=0.0254x elapsed=0:02:37.34    \nframe=  123 fps=0.8 q=49.7 size=     256KiB time=00:00:04.03 bitrate= 520.0kbits/s speed=0.0255x elapsed=0:02:37.87    \nframe=  123 fps=0.8 q=49.7 size=     256KiB time=00:00:04.03 bitrate= 520.0kbits/s speed=0.0255x elapsed=0:02:38.47    \nframe=  124 fps=0.8 q=44.3 size=     256KiB time=00:00:04.06 bitrate= 515.8kbits/s speed=0.0256x elapsed=0:02:39.01    \nframe=  124 fps=0.8 q=44.3 size=     256KiB time=00:00:04.06 bitrate= 515.8kbits/s speed=0.0255x elapsed=0:02:39.59    \nframe=  124 fps=0.8 q=44.3 size=     256KiB time=00:00:04.06 bitrate= 515.8kbits/s speed=0.0254x elapsed=0:02:40.20    \nframe=  124 fps=0.8 q=44.3 size=     256KiB time=00:00:04.06 bitrate= 515.8kbits/s speed=0.0253x elapsed=0:02:40.83    \nframe=  124 fps=0.8 q=44.3 size=     256KiB time=00:00:04.06 bitrate= 515.8kbits/s speed=0.0252x elapsed=0:02:41.40    \nframe=  124 fps=0.8 q=44.3 size=     256KiB time=00:00:04.06 bitrate= 515.8kbits/s speed=0.0251x elapsed=0:02:41.96    \nframe=  124 fps=0.8 q=44.3 size=     256KiB time=00:00:04.06 bitrate= 515.8kbits/s speed=0.025x elapsed=0:02:42.48    \nframe=  124 fps=0.8 q=44.3 size=     256KiB time=00:00:04.06 bitrate= 515.8kbits/s speed=0.0249x elapsed=0:02:43.00    \nframe=  124 fps=0.8 q=44.3 size=     256KiB time=00:00:04.06 bitrate= 515.8kbits/s speed=0.0249x elapsed=0:02:43.54    \nframe=  125 fps=0.8 q=47.4 size=     256KiB time=00:00:04.10 bitrate= 511.6kbits/s speed=0.025x elapsed=0:02:44.09    \nframe=  127 fps=0.8 q=49.6 size=     256KiB time=00:00:04.13 bitrate= 507.5kbits/s speed=0.0251x elapsed=0:02:44.61    \nframe=  127 fps=0.8 q=49.6 size=     256KiB time=00:00:04.16 bitrate= 503.4kbits/s speed=0.0252x elapsed=0:02:45.17    \nframe=  127 fps=0.8 q=49.6 size=     256KiB time=00:00:04.16 bitrate= 503.4kbits/s speed=0.0251x elapsed=0:02:45.70    \nframe=  127 fps=0.8 q=49.6 size=     256KiB time=00:00:04.16 bitrate= 503.4kbits/s speed=0.0251x elapsed=0:02:46.24    \nframe=  128 fps=0.8 q=44.3 size=     256KiB time=00:00:04.20 bitrate= 499.4kbits/s speed=0.0252x elapsed=0:02:46.76    \nframe=  128 fps=0.8 q=44.3 size=     256KiB time=00:00:04.20 bitrate= 499.4kbits/s speed=0.0251x elapsed=0:02:47.28    \nframe=  128 fps=0.8 q=44.3 size=     256KiB time=00:00:04.20 bitrate= 499.4kbits/s speed=0.025x elapsed=0:02:47.82    \nframe=  129 fps=0.8 q=47.4 size=     512KiB time=00:00:04.23 bitrate= 990.9kbits/s speed=0.0251x elapsed=0:02:48.37    \nframe=  131 fps=0.8 q=49.6 size=     512KiB time=00:00:04.30 bitrate= 975.5kbits/s speed=0.0255x elapsed=0:02:48.88    \nframe=  131 fps=0.8 q=49.6 size=     512KiB time=00:00:04.30 bitrate= 975.5kbits/s speed=0.0254x elapsed=0:02:49.40    \nframe=  131 fps=0.8 q=49.6 size=     512KiB time=00:00:04.30 bitrate= 975.5kbits/s speed=0.0253x elapsed=0:02:49.92    \nframe=  132 fps=0.8 q=44.2 size=     512KiB time=00:00:04.33 bitrate= 968.0kbits/s speed=0.0254x elapsed=0:02:50.44    \nframe=  132 fps=0.8 q=44.2 size=     512KiB time=00:00:04.33 bitrate= 968.0kbits/s speed=0.0253x elapsed=0:02:50.97    \nframe=  133 fps=0.8 q=47.4 size=     512KiB time=00:00:04.36 bitrate= 960.6kbits/s speed=0.0255x elapsed=0:02:51.48    \nframe=  135 fps=0.8 q=49.4 size=     512KiB time=00:00:04.43 bitrate= 946.2kbits/s speed=0.0258x elapsed=0:02:52.01    \nframe=  135 fps=0.8 q=49.4 size=     512KiB time=00:00:04.43 bitrate= 946.2kbits/s speed=0.0257x elapsed=0:02:52.53    \nframe=  136 fps=0.8 q=44.5 size=     512KiB time=00:00:04.46 bitrate= 939.1kbits/s speed=0.0258x elapsed=0:02:53.05    \nframe=  136 fps=0.8 q=44.5 size=     512KiB time=00:00:04.46 bitrate= 939.1kbits/s speed=0.0257x elapsed=0:02:53.57    \nframe=  137 fps=0.8 q=48.3 size=     512KiB time=00:00:04.50 bitrate= 932.1kbits/s speed=0.0258x elapsed=0:02:54.11    \nframe=  137 fps=0.8 q=48.3 size=     512KiB time=00:00:04.50 bitrate= 932.1kbits/s speed=0.0258x elapsed=0:02:54.63    \nframe=  138 fps=0.8 q=49.3 size=     512KiB time=00:00:04.53 bitrate= 925.3kbits/s speed=0.0259x elapsed=0:02:55.15    \nframe=  139 fps=0.8 q=49.5 size=     512KiB time=00:00:04.56 bitrate= 918.5kbits/s speed=0.026x elapsed=0:02:55.66    \nframe=  140 fps=0.8 q=49.5 size=     512KiB time=00:00:04.60 bitrate= 911.9kbits/s speed=0.0261x elapsed=0:02:56.19    \nframe=  141 fps=0.8 q=44.8 size=     512KiB time=00:00:04.63 bitrate= 905.3kbits/s speed=0.0262x elapsed=0:02:56.71    \nframe=  142 fps=0.8 q=48.2 size=     512KiB time=00:00:04.66 bitrate= 898.9kbits/s speed=0.0263x elapsed=0:02:57.24    \nframe=  142 fps=0.8 q=48.2 size=     512KiB time=00:00:04.66 bitrate= 898.9kbits/s speed=0.0263x elapsed=0:02:57.76    \nframe=  142 fps=0.8 q=48.2 size=     512KiB time=00:00:04.66 bitrate= 898.9kbits/s speed=0.0262x elapsed=0:02:58.31    \nframe=  144 fps=0.8 q=48.4 size=     512KiB time=00:00:04.73 bitrate= 886.2kbits/s speed=0.0265x elapsed=0:02:58.89    \nframe=  145 fps=0.8 q=48.4 size=     512KiB time=00:00:04.76 bitrate= 880.0kbits/s speed=0.0266x elapsed=0:02:59.41    \nframe=  145 fps=0.8 q=48.4 size=     512KiB time=00:00:04.76 bitrate= 880.0kbits/s speed=0.0265x elapsed=0:02:59.93    \nframe=  145 fps=0.8 q=48.4 size=     512KiB time=00:00:04.76 bitrate= 880.0kbits/s speed=0.0264x elapsed=0:03:00.46    \nframe=  145 fps=0.8 q=48.4 size=     512KiB time=00:00:04.76 bitrate= 880.0kbits/s speed=0.0263x elapsed=0:03:00.99    \nframe=  145 fps=0.8 q=48.4 size=     512KiB time=00:00:04.76 bitrate= 880.0kbits/s speed=0.0263x elapsed=0:03:01.52    \nframe=  146 fps=0.8 q=45.5 size=     512KiB time=00:00:04.80 bitrate= 873.9kbits/s speed=0.0264x elapsed=0:03:02.06    \nframe=  146 fps=0.8 q=45.5 size=     512KiB time=00:00:04.80 bitrate= 873.9kbits/s speed=0.0263x elapsed=0:03:02.57    \nframe=  146 fps=0.8 q=45.5 size=     512KiB time=00:00:04.80 bitrate= 873.9kbits/s speed=0.0262x elapsed=0:03:03.12    \nframe=  146 fps=0.8 q=45.5 size=     512KiB time=00:00:04.80 bitrate= 873.9kbits/s speed=0.0261x elapsed=0:03:03.68    \nframe=  146 fps=0.8 q=45.5 size=     512KiB time=00:00:04.80 bitrate= 873.9kbits/s speed=0.0261x elapsed=0:03:04.23    \nframe=  147 fps=0.8 q=45.7 size=     512KiB time=00:00:04.83 bitrate= 867.9kbits/s speed=0.0262x elapsed=0:03:04.76    \nframe=  147 fps=0.8 q=45.7 size=     512KiB time=00:00:04.83 bitrate= 867.9kbits/s speed=0.0261x elapsed=0:03:05.28    \nframe=  148 fps=0.8 q=47.7 size=     512KiB time=00:00:04.86 bitrate= 861.9kbits/s speed=0.0262x elapsed=0:03:05.82    \n[mp4 @ 000001c0e0a49740] Starting second pass: moving the moov atom to the beginning of the file\n[out#0/mp4 @ 000001c0e0a3ab00] video:602KiB audio:0KiB subtitle:0KiB other streams:0KiB global headers:2KiB muxing overhead: 0.856012%\nframe=  150 fps=0.8 q=48.0 Lsize=     608KiB time=00:00:04.93 bitrate=1008.8kbits/s speed=0.0265x elapsed=0:03:05.91    \nx265 [info]: frame I:      1, Avg QP:47.28  kb/s: 3417.60 \nx265 [info]: frame P:     36, Avg QP:44.45  kb/s: 2909.69 \nx265 [info]: frame B:    113, Avg QP:48.88  kb/s: 351.55  \nx265 [info]: Weighted P-Frames: Y:0.0% UV:0.0%\n\nencoded 150 frames in 185.37s (0.81 fps), 985.94 kb/s, Avg QP:47.80\n",
  "seconds": 186.48631072044373,
  "probe_out": {}
}